<svg width="512" height="512" viewBox="0 0 512 512" fill="none" xmlns="http://www.w3.org/2000/svg">
<rect width="512" height="512" rx="50" fill="url(#paint0_linear_198_108)"/>
<path d="M100.58 178.25L103.69 186.822C105.396 191.521 108.126 195.789 111.685 199.321C115.243 202.853 119.543 205.562 124.277 207.256L132.913 210.342C133.084 210.404 133.231 210.517 133.335 210.665C133.439 210.812 133.495 210.988 133.495 211.169C133.495 211.349 133.439 211.525 133.335 211.673C133.231 211.82 133.084 211.933 132.913 211.995L124.277 215.082C119.543 216.775 115.243 219.485 111.685 223.017C108.126 226.549 105.396 230.816 103.69 235.515L100.58 244.087C100.518 244.257 100.404 244.403 100.255 244.506C100.106 244.609 99.9291 244.664 99.7475 244.664C99.5659 244.664 99.3886 244.609 99.2397 244.506C99.0908 244.403 98.9774 244.257 98.9149 244.087L95.8051 235.515C94.0987 230.816 91.369 226.549 87.8104 223.017C84.2519 219.485 79.9521 216.775 75.2177 215.082L66.5815 211.995C66.411 211.933 66.2638 211.82 66.1598 211.673C66.0558 211.525 66 211.349 66 211.169C66 210.988 66.0558 210.812 66.1598 210.665C66.2638 210.517 66.411 210.404 66.5815 210.342L75.2177 207.256C79.9521 205.562 84.2519 202.853 87.8104 199.321C91.369 195.789 94.0987 191.521 95.8051 186.822L98.9149 178.25C98.9757 178.079 99.0884 177.931 99.2375 177.826C99.3867 177.722 99.5648 177.665 99.7475 177.665C99.9302 177.665 100.108 177.722 100.257 177.826C100.407 177.931 100.519 178.079 100.58 178.25Z" fill="white"/>
<path d="M192.969 144.458L194.524 148.744C195.378 151.093 196.742 153.227 198.522 154.993C200.301 156.759 202.451 158.114 204.818 158.961L209.136 160.504C209.221 160.535 209.295 160.591 209.347 160.665C209.399 160.739 209.427 160.827 209.427 160.917C209.427 161.008 209.399 161.095 209.347 161.169C209.295 161.243 209.221 161.3 209.136 161.331L204.818 162.874C202.451 163.721 200.301 165.075 198.522 166.841C196.742 168.607 195.378 170.741 194.524 173.091L192.969 177.377C192.938 177.461 192.882 177.534 192.807 177.586C192.733 177.638 192.644 177.665 192.553 177.665C192.462 177.665 192.374 177.638 192.299 177.586C192.225 177.534 192.168 177.461 192.137 177.377L190.582 173.091C189.729 170.741 188.364 168.607 186.585 166.841C184.805 165.075 182.655 163.721 180.288 162.874L175.97 161.331C175.885 161.3 175.811 161.243 175.759 161.169C175.707 161.095 175.679 161.008 175.679 160.917C175.679 160.827 175.707 160.739 175.759 160.665C175.811 160.591 175.885 160.535 175.97 160.504L180.288 158.961C182.655 158.114 184.805 156.759 186.585 154.993C188.364 153.227 189.729 151.093 190.582 148.744L192.137 144.458C192.167 144.373 192.224 144.299 192.298 144.246C192.373 144.194 192.462 144.166 192.553 144.166C192.644 144.166 192.734 144.194 192.808 144.246C192.883 144.299 192.939 144.373 192.969 144.458Z" fill="white"/>
<path d="M117.038 66.2923L118.592 70.5782C119.446 72.9278 120.811 75.0616 122.59 76.8276C124.369 78.5936 126.519 79.9483 128.886 80.7952L133.204 82.3385C133.29 82.3695 133.363 82.4258 133.415 82.4997C133.467 82.5736 133.495 82.6615 133.495 82.7517C133.495 82.8418 133.467 82.9298 133.415 83.0037C133.363 83.0776 133.29 83.1338 133.204 83.1649L128.886 84.7082C126.519 85.555 124.369 86.9097 122.59 88.6757C120.811 90.4417 119.446 92.5755 118.592 94.9251L117.038 99.211C117.006 99.2956 116.95 99.3687 116.875 99.4203C116.801 99.4719 116.712 99.4996 116.621 99.4996C116.53 99.4996 116.442 99.4719 116.367 99.4203C116.293 99.3687 116.236 99.2956 116.205 99.211L114.65 94.9251C113.797 92.5755 112.432 90.4417 110.653 88.6757C108.873 86.9097 106.724 85.555 104.356 84.7082L100.038 83.1649C99.953 83.1338 99.8794 83.0776 99.8274 83.0037C99.7754 82.9298 99.7475 82.8418 99.7475 82.7517C99.7475 82.6615 99.7754 82.5736 99.8274 82.4997C99.8794 82.4258 99.953 82.3695 100.038 82.3385L104.356 80.7952C106.724 79.9483 108.873 78.5936 110.653 76.8276C112.432 75.0616 113.797 72.9278 114.65 70.5782L116.205 66.2923C116.235 66.2069 116.292 66.1328 116.366 66.0805C116.441 66.0281 116.53 66 116.621 66C116.713 66 116.802 66.0281 116.876 66.0805C116.951 66.1328 117.007 66.2069 117.038 66.2923Z" fill="white"/>
<path d="M316.294 177.665C374.673 177.665 424.737 212.983 446 263.265C423.692 217.56 376.515 186.04 321.919 186.04C245.812 186.04 184.116 247.283 184.116 322.83C184.116 377.026 215.869 423.856 261.913 446C211.258 424.893 175.679 375.197 175.679 317.247C175.679 240.158 238.635 177.665 316.294 177.665Z" fill="white"/>
<defs>
<linearGradient id="paint0_linear_198_108" x1="399.673" y1="47.0204" x2="256" y2="512" gradientUnits="userSpaceOnUse">
<stop stop-color="#D4B785"/>
<stop offset="1" stop-color="#B08D59"/>
</linearGradient>
</defs>
</svg>
