<svg width="267" height="134" viewBox="0 0 267 134" fill="none" xmlns="http://www.w3.org/2000/svg">
<path d="M110.573 26.5421L111.031 27.8053C111.283 28.4978 111.685 29.1267 112.209 29.6472C112.734 30.1677 113.367 30.567 114.065 30.8166L115.338 31.2715C115.363 31.2806 115.385 31.2972 115.4 31.319C115.415 31.3408 115.423 31.3667 115.423 31.3933C115.423 31.4198 115.415 31.4458 115.4 31.4675C115.385 31.4893 115.363 31.5059 115.338 31.5151L114.065 31.9699C113.367 32.2195 112.734 32.6188 112.209 33.1393C111.685 33.6598 111.283 34.2887 111.031 34.9812L110.573 36.2444C110.564 36.2694 110.547 36.2909 110.525 36.3061C110.503 36.3213 110.477 36.3295 110.45 36.3295C110.423 36.3295 110.397 36.3213 110.375 36.3061C110.353 36.2909 110.337 36.2694 110.327 36.2444L109.869 34.9812C109.618 34.2887 109.215 33.6598 108.691 33.1393C108.167 32.6188 107.533 32.2195 106.835 31.9699L105.563 31.5151C105.537 31.5059 105.516 31.4893 105.5 31.4675C105.485 31.4458 105.477 31.4198 105.477 31.3933C105.477 31.3667 105.485 31.3408 105.5 31.319C105.516 31.2972 105.537 31.2806 105.563 31.2715L106.835 30.8166C107.533 30.567 108.167 30.1677 108.691 29.6472C109.215 29.1267 109.618 28.4978 109.869 27.8053L110.327 26.5421C110.336 26.5169 110.353 26.4951 110.375 26.4797C110.397 26.4642 110.423 26.4559 110.45 26.4559C110.477 26.4559 110.503 26.4642 110.525 26.4797C110.547 26.4951 110.564 26.5169 110.573 26.5421Z" fill="url(#paint0_linear_249_2719)"/>
<path d="M124.188 21.5622L124.417 22.1938C124.543 22.5401 124.744 22.8546 125.006 23.1148C125.269 23.3751 125.585 23.5747 125.934 23.6995L126.571 23.9269C126.583 23.9315 126.594 23.9398 126.602 23.9507C126.609 23.9616 126.613 23.9745 126.613 23.9878C126.613 24.0011 126.609 24.0141 126.602 24.025C126.594 24.0359 126.583 24.0441 126.571 24.0487L125.934 24.2762C125.585 24.4009 125.269 24.6006 125.006 24.8608C124.744 25.1211 124.543 25.4356 124.417 25.7818L124.188 26.4134C124.183 26.4259 124.175 26.4366 124.164 26.4443C124.153 26.4519 124.14 26.4559 124.127 26.4559C124.113 26.4559 124.1 26.4519 124.089 26.4443C124.078 26.4366 124.07 26.4259 124.065 26.4134L123.836 25.7818C123.711 25.4356 123.509 25.1211 123.247 24.8608C122.985 24.6006 122.668 24.4009 122.319 24.2762L121.683 24.0487C121.67 24.0441 121.66 24.0359 121.652 24.025C121.644 24.0141 121.64 24.0011 121.64 23.9878C121.64 23.9745 121.644 23.9616 121.652 23.9507C121.66 23.9398 121.67 23.9315 121.683 23.9269L122.319 23.6995C122.668 23.5747 122.985 23.3751 123.247 23.1148C123.509 22.8546 123.711 22.5401 123.836 22.1938L124.065 21.5622C124.07 21.5496 124.078 21.5387 124.089 21.531C124.1 21.5233 124.113 21.5192 124.127 21.5192C124.14 21.5192 124.153 21.5233 124.164 21.531C124.175 21.5387 124.184 21.5496 124.188 21.5622Z" fill="url(#paint1_linear_249_2719)"/>
<path d="M112.998 10.0431L113.227 10.6747C113.353 11.0209 113.554 11.3354 113.816 11.5957C114.079 11.8559 114.395 12.0555 114.744 12.1803L115.381 12.4078C115.393 12.4123 115.404 12.4206 115.412 12.4315C115.419 12.4424 115.423 12.4554 115.423 12.4687C115.423 12.482 115.419 12.4949 115.412 12.5058C115.404 12.5167 115.393 12.525 115.381 12.5296L114.744 12.757C114.395 12.8818 114.079 13.0814 113.816 13.3417C113.554 13.6019 113.353 13.9164 113.227 14.2626L112.998 14.8943C112.994 14.9067 112.985 14.9175 112.974 14.9251C112.963 14.9327 112.95 14.9368 112.937 14.9368C112.923 14.9368 112.91 14.9327 112.899 14.9251C112.888 14.9175 112.88 14.9067 112.875 14.8943L112.646 14.2626C112.521 13.9164 112.319 13.6019 112.057 13.3417C111.795 13.0814 111.478 12.8818 111.129 12.757L110.493 12.5296C110.48 12.525 110.47 12.5167 110.462 12.5058C110.454 12.4949 110.45 12.482 110.45 12.4687C110.45 12.4554 110.454 12.4424 110.462 12.4315C110.47 12.4206 110.48 12.4123 110.493 12.4078L111.129 12.1803C111.478 12.0555 111.795 11.8559 112.057 11.5957C112.319 11.3354 112.521 11.0209 112.646 10.6747L112.875 10.0431C112.88 10.0305 112.888 10.0196 112.899 10.0119C112.91 10.0041 112.923 10 112.937 10C112.95 10 112.963 10.0041 112.974 10.0119C112.985 10.0196 112.994 10.0305 112.998 10.0431Z" fill="url(#paint2_linear_249_2719)"/>
<path d="M142.362 26.4559C150.965 26.4559 158.343 31.6606 161.477 39.0707C158.189 32.3351 151.237 27.6901 143.191 27.6901C131.975 27.6901 122.883 36.7154 122.883 47.8487C122.883 55.8354 127.563 62.7367 134.348 66C126.883 62.8895 121.64 55.5659 121.64 47.0259C121.64 35.6654 130.918 26.4559 142.362 26.4559Z" fill="url(#paint3_linear_249_2719)"/>
<path d="M22.888 97.552V97.648L22.816 97.672C21.256 98.416 19.576 98.824 17.872 98.824C13.192 98.824 9.99999 95.464 9.99999 90.832C9.99999 86.272 12.952 82.696 17.68 82.696C18.496 82.696 19.216 82.84 19.912 83.008C20.56 83.152 21.016 83.32 21.904 83.296C22.144 83.296 22.312 83.2 22.384 82.96L22.432 82.84L22.984 82.936L22.96 83.08C22.864 83.632 22.816 84.184 22.816 84.712C22.792 85.264 22.816 85.816 22.816 86.392V86.536H22.216C21.784 84.784 18.904 84.088 17.32 84.088C13.768 84.088 12.088 86.896 12.088 90.208C12.088 93.976 14.344 97.312 18.328 97.312C20.056 97.312 21.832 96.808 22.576 95.176L22.624 95.056L23.152 95.2L23.128 95.32C22.984 96.064 22.912 96.808 22.888 97.552Z" fill="url(#paint4_linear_249_2719)"/>
<path d="M45.0194 98.104V98.608C43.5794 98.56 41.8514 98.584 40.4114 98.608V98.056C40.6754 97.984 40.9634 97.912 41.2034 97.768C41.3474 97.648 41.4674 97.504 41.4674 97.24C41.4674 96.832 40.2914 93.928 40.0514 93.304H34.7234C34.5314 93.736 34.1954 94.48 33.9074 95.2C33.5954 96.016 33.3314 96.784 33.3314 97.168C33.3314 97.768 33.8114 97.936 34.2914 98.056V98.608C33.0674 98.584 31.5314 98.56 30.3074 98.608V98.056C30.8354 97.912 31.1714 97.72 31.3154 97.504C31.4114 97.408 31.4594 97.264 31.5314 97.12C31.6034 96.952 31.6754 96.76 31.7474 96.544L37.1714 82.912H37.9634L43.4114 96.352C43.7714 97.264 44.0834 97.768 45.0194 98.104ZM35.2514 91.984H39.4994L37.5554 87.016C37.5554 86.968 37.5554 86.944 37.5314 86.896L37.4354 86.632C37.4354 86.608 37.4354 86.608 37.4114 86.608V86.536C37.3154 86.68 37.2434 86.824 37.1954 86.992C36.7394 88.12 36.2594 89.272 35.8274 90.424L35.2514 91.984Z" fill="url(#paint5_linear_249_2719)"/>
<path d="M66.3904 85.384C66.3904 85.912 66.3904 86.464 66.3904 86.992L66.3184 90.232C66.3184 90.784 66.3184 91.312 66.3184 91.864C66.3184 92.44 66.3184 92.992 66.3184 93.568L66.3664 97C66.3664 97.552 66.3664 98.128 66.3664 98.704V98.848H65.8144L65.7664 98.8C62.0704 95.104 58.6864 91.168 55.3744 87.136C55.4224 89.32 55.3744 91.48 55.3744 93.664C55.3744 94.648 55.3744 95.656 55.4224 96.664C55.4704 97.624 55.6144 97.792 56.5984 98.056L56.6944 98.08V98.608H56.5504C55.1584 98.584 53.7424 98.56 52.3504 98.608H52.2064V98.08L52.3264 98.056C53.3344 97.84 53.4064 97.624 53.4784 96.664C53.5504 95.416 53.5744 94.168 53.5744 92.92C53.5744 89.56 53.5744 86.224 53.5024 82.864V82.72H54.0784L54.1264 82.768C55.8544 84.904 57.5584 87.04 59.3344 89.152C61.0144 91.168 62.7424 93.136 64.5904 94.984C64.5904 91.792 64.4944 88.624 64.4944 85.432C64.4944 84.424 64.2304 83.872 63.1744 83.536L63.0784 83.488V82.984H63.2224C63.9424 83.032 64.6864 83.032 65.4064 83.032C66.1024 83.032 66.8224 83.032 67.5424 82.984H67.6864V83.512L67.5904 83.536C66.9424 83.704 66.6784 83.896 66.5344 84.136C66.3904 84.4 66.3904 84.76 66.3904 85.384Z" fill="url(#paint6_linear_249_2719)"/>
<path d="M89.5741 98.104V98.608C88.1341 98.56 86.4061 98.584 84.9661 98.608V98.056C85.2301 97.984 85.5181 97.912 85.7581 97.768C85.9021 97.648 86.0221 97.504 86.0221 97.24C86.0221 96.832 84.8461 93.928 84.6061 93.304H79.2781C79.0861 93.736 78.7501 94.48 78.4621 95.2C78.1501 96.016 77.8861 96.784 77.8861 97.168C77.8861 97.768 78.3661 97.936 78.8461 98.056V98.608C77.6221 98.584 76.0861 98.56 74.8621 98.608V98.056C75.3901 97.912 75.7261 97.72 75.8701 97.504C75.9661 97.408 76.0141 97.264 76.0861 97.12C76.1581 96.952 76.2301 96.76 76.3021 96.544L81.7261 82.912H82.5181L87.9661 96.352C88.3261 97.264 88.6381 97.768 89.5741 98.104ZM79.8061 91.984H84.0541L82.1101 87.016C82.1101 86.968 82.1101 86.944 82.0861 86.896L81.9901 86.632C81.9901 86.608 81.9901 86.608 81.9661 86.608V86.536C81.8701 86.68 81.798 86.824 81.7501 86.992C81.2941 88.12 80.8141 89.272 80.3821 90.424L79.8061 91.984Z" fill="url(#paint7_linear_249_2719)"/>
<path d="M104.561 98.752C102.017 98.752 99.4971 98.608 96.9531 98.608H96.8091V98.104L96.9051 98.08C97.9851 97.72 98.1531 97.336 98.1771 96.28C98.2251 94.456 98.2251 92.608 98.2251 90.784C98.2251 90.328 98.2251 89.848 98.2251 89.392L98.1771 86.632C98.1771 86.152 98.1771 85.696 98.1771 85.24C98.1771 84.16 98.0331 83.848 96.9771 83.536L96.8811 83.488V82.984H97.0251C98.4891 83.032 99.9771 83.032 101.441 82.984H101.585V83.488L101.489 83.536C100.289 83.92 100.265 84.232 100.265 85.48C100.241 88.072 100.241 90.664 100.241 93.28C100.241 94.312 100.193 95.416 100.265 96.472C100.337 97.168 100.553 97.456 101.201 97.456H101.849C102.353 97.456 102.833 97.456 103.241 97.432C104.633 97.36 105.401 96.712 105.833 95.392L105.881 95.272L106.457 95.368L106.433 95.512C106.361 95.848 106.361 96.208 106.337 96.568C106.265 97.792 106.121 98.752 104.561 98.752Z" fill="url(#paint8_linear_249_2719)"/>
<path d="M123.185 98.128C122.825 98.632 122.153 98.704 120.737 98.704C118.457 98.704 116.201 98.608 113.945 98.608H113.801V98.104L113.897 98.08C114.617 97.888 114.857 97.6 114.977 97.264C115.025 97.072 115.049 96.88 115.049 96.616V95.728C115.073 93.304 115.097 90.88 115.097 88.48C115.097 87.424 115.121 86.344 115.049 85.288C114.977 84.352 114.857 83.776 113.921 83.536L113.825 83.512V82.984H123.257L123.233 83.152C123.137 83.848 123.065 84.544 123.065 85.24V85.384H122.465L122.441 85.264C122.249 84.496 121.841 84.28 121.049 84.28H117.185C117.113 86.056 117.089 88 117.089 89.776H120.641C121.601 89.776 121.913 89.44 122.345 88.552H122.897C122.801 89.776 122.705 91.12 122.705 92.32V92.464L122.129 92.488C121.985 92.056 121.865 91.096 120.785 91.096H117.089C117.089 92.56 117.113 94.024 117.113 95.512C117.113 96.352 117.137 96.808 117.281 97.048C117.305 97.048 117.305 97.072 117.329 97.096L117.401 97.168C117.401 97.192 117.425 97.192 117.425 97.216C117.641 97.384 118.073 97.384 118.985 97.384H119.393C121.409 97.384 122.225 97.264 123.257 95.44L123.305 95.344L123.833 95.488L123.809 95.608C123.641 96.256 123.569 96.784 123.497 97.168C123.425 97.576 123.329 97.888 123.185 98.128Z" fill="url(#paint9_linear_249_2719)"/>
<path d="M143.757 85.84H143.133V85.696C143.109 84.736 142.605 84.616 141.669 84.616C141.429 84.616 141.189 84.616 140.925 84.616L139.461 84.568C139.221 84.568 138.957 84.568 138.717 84.568C138.645 86.872 138.645 89.152 138.645 91.456C138.645 93.16 138.645 94.912 138.741 96.616C138.789 97.528 139.029 97.816 139.869 98.08L139.965 98.104V98.608H139.821C138.405 98.56 136.965 98.56 135.549 98.608H135.405V98.08L135.501 98.056C136.485 97.792 136.581 97.504 136.605 96.52C136.677 94.216 136.701 91.936 136.701 89.632L136.677 86.248C136.677 85.696 136.677 85.12 136.677 84.568C136.461 84.568 136.245 84.568 136.029 84.568L134.709 84.544C134.493 84.544 134.277 84.544 134.061 84.544C132.573 84.544 132.117 84.568 131.445 85.936L131.397 86.056L130.797 85.792L130.845 85.672C131.229 84.616 131.469 83.488 131.517 82.384V82.24H132.165C132.165 83.008 133.197 83.056 133.773 83.128C134.709 83.224 135.717 83.176 136.125 83.176H141.957C142.845 83.176 143.349 82.96 143.637 82.12L143.685 82L144.285 82.12C143.973 83.2 143.829 84.736 143.757 85.84Z" fill="url(#paint10_linear_249_2719)"/>
<path d="M163.703 85.84H163.079V85.696C163.055 84.736 162.551 84.616 161.615 84.616C161.375 84.616 161.135 84.616 160.871 84.616L159.407 84.568C159.167 84.568 158.903 84.568 158.663 84.568C158.591 86.872 158.591 89.152 158.591 91.456C158.591 93.16 158.591 94.912 158.687 96.616C158.735 97.528 158.975 97.816 159.815 98.08L159.911 98.104V98.608H159.767C158.351 98.56 156.911 98.56 155.495 98.608H155.351V98.08L155.447 98.056C156.431 97.792 156.527 97.504 156.551 96.52C156.623 94.216 156.647 91.936 156.647 89.632L156.623 86.248C156.623 85.696 156.623 85.12 156.623 84.568C156.407 84.568 156.191 84.568 155.975 84.568L154.655 84.544C154.439 84.544 154.223 84.544 154.007 84.544C152.519 84.544 152.063 84.568 151.391 85.936L151.343 86.056L150.743 85.792L150.791 85.672C151.175 84.616 151.415 83.488 151.463 82.384V82.24H152.111C152.111 83.008 153.143 83.056 153.719 83.128C154.655 83.224 155.663 83.176 156.071 83.176H161.903C162.791 83.176 163.295 82.96 163.583 82.12L163.631 82L164.231 82.12C163.919 83.2 163.775 84.736 163.703 85.84Z" fill="url(#paint11_linear_249_2719)"/>
<path d="M170.242 90.832C170.242 86.32 173.41 82.672 178.042 82.672C182.674 82.672 185.698 86.224 185.698 90.712C185.698 95.272 182.698 98.872 177.994 98.872C173.362 98.872 170.242 95.368 170.242 90.832ZM172.474 90.4C172.474 93.928 174.178 97.552 178.09 97.552C181.69 97.552 183.466 94.528 183.466 91.168C183.466 87.592 181.81 84.016 177.874 84.016C174.274 84.016 172.474 87.064 172.474 90.4Z" fill="url(#paint12_linear_249_2719)"/>
<path d="M206.329 98.248C206.161 97.984 206.089 97.624 206.041 97.168C205.993 96.736 205.921 96.136 205.801 95.392L205.777 95.248L206.449 95.128L206.473 95.272C206.785 96.76 207.649 97.528 209.185 97.528C210.913 97.528 212.425 96.784 212.425 94.936C212.425 93.688 211.417 92.992 210.481 92.368C210.097 92.128 209.713 91.888 209.305 91.624C207.721 90.64 206.065 89.416 206.065 87.016C206.065 84.496 207.721 82.744 210.265 82.744C211.081 82.744 211.897 82.96 212.713 82.96C212.929 82.96 213.361 82.816 213.529 82.696L213.865 82.816L213.841 82.936C213.673 83.968 213.649 85.072 213.697 86.128V86.272H213.049L213.025 86.152C212.689 84.76 211.825 84.112 210.385 84.112C209.041 84.112 207.817 84.736 207.817 86.152C207.817 88.12 209.473 89.2 210.985 90.088C212.593 91.096 214.297 92.176 214.297 94.432C214.297 97.408 212.041 98.848 209.329 98.848C207.505 98.848 206.689 98.776 206.329 98.248Z" fill="url(#paint13_linear_249_2719)"/>
<path d="M235.489 99.688L235.393 99.712C235.033 99.784 234.649 99.832 234.265 99.832C231.961 99.832 230.401 98.128 229.105 96.424C228.433 95.56 227.809 94.432 227.185 93.52C226.657 92.752 226.129 92.008 225.577 91.408V92.008C225.577 92.368 225.577 92.728 225.577 93.112L225.649 95.296C225.649 95.656 225.649 96.04 225.649 96.4C225.649 97.384 225.697 97.792 226.681 98.08L226.777 98.104V98.608H226.633C225.313 98.56 223.993 98.56 222.673 98.608H222.529V98.104L222.625 98.08C223.177 97.912 223.393 97.696 223.489 97.48C223.561 97.36 223.585 97.216 223.585 97.024C223.609 96.832 223.609 96.616 223.609 96.352C223.609 95.848 223.609 95.344 223.609 94.84L223.657 91.792C223.657 91.288 223.657 90.784 223.657 90.28C223.657 89.872 223.657 89.464 223.657 89.056L223.633 86.584C223.633 86.176 223.633 85.768 223.633 85.36C223.633 84.352 223.585 83.848 222.577 83.536L222.481 83.488V82.984H222.625C223.945 83.032 225.265 83.032 226.585 82.984H226.729V83.488L226.633 83.536C226.105 83.752 225.865 83.968 225.769 84.208C225.697 84.352 225.673 84.52 225.649 84.712V85.408C225.649 86.992 225.601 88.528 225.577 90.112C225.937 89.704 227.185 88.336 228.337 87.088C229.729 85.6 230.905 84.208 230.905 83.92C230.905 83.824 230.857 83.752 230.761 83.68C230.641 83.608 230.521 83.56 230.401 83.536L230.281 83.512V82.984H230.425C231.745 83.032 233.041 83.032 234.361 82.984H234.505V83.488C233.473 83.728 232.633 84.328 231.865 85.168L227.185 90.256C228.337 91.528 229.393 92.92 230.353 94.288C230.425 94.384 230.521 94.504 230.641 94.72C231.769 96.4 233.425 99.064 235.321 99.064C235.417 99.064 235.465 99.064 235.585 99.064L235.489 99.688Z" fill="url(#paint14_linear_249_2719)"/>
<path d="M255.298 84.424C255.058 84.712 254.818 85 254.602 85.312L254.338 85.72C254.29 85.768 254.242 85.84 254.194 85.912L250.858 90.832V95.896C250.858 97 250.906 97.792 252.034 98.056L252.154 98.08V98.608H252.01C250.57 98.56 249.106 98.56 247.666 98.608H247.522V98.08L247.642 98.056C248.842 97.816 248.89 96.88 248.89 95.728V91.192L244.858 86.128C244.594 85.816 244.402 85.504 244.21 85.24C243.538 84.328 242.962 83.824 241.81 83.536L241.714 83.512V82.984H241.858C242.698 83.008 243.538 83.032 244.378 83.032C245.242 83.032 246.082 83.008 246.946 82.984H247.09V83.512L246.97 83.536C246.538 83.608 246.106 83.8 246.106 84.208C246.106 84.472 246.874 85.624 247.81 86.872C248.626 87.952 249.49 89.08 249.898 89.608C250.234 89.08 251.002 88.024 251.698 86.968C252.514 85.744 253.186 84.616 253.186 84.304C253.186 83.824 252.826 83.656 252.322 83.536L252.202 83.512V82.984H252.346C253.834 83.032 255.322 83.056 256.81 82.984H256.954V83.512L256.834 83.536C256.162 83.68 255.706 84.016 255.298 84.424Z" fill="url(#paint15_linear_249_2719)"/>
<path d="M63.5597 123.128L60.9037 118.568H59.1437V123.128H57.6877V111.976H61.2877C62.1304 111.976 62.8397 112.12 63.4157 112.408C64.0024 112.696 64.4397 113.085 64.7277 113.576C65.0157 114.067 65.1597 114.627 65.1597 115.256C65.1597 116.024 64.9357 116.701 64.4877 117.288C64.0504 117.875 63.3891 118.264 62.5037 118.456L65.3037 123.128H63.5597ZM59.1437 117.4H61.2877C62.0771 117.4 62.6691 117.208 63.0637 116.824C63.4584 116.429 63.6557 115.907 63.6557 115.256C63.6557 114.595 63.4584 114.083 63.0637 113.72C62.6797 113.357 62.0877 113.176 61.2877 113.176H59.1437V117.4Z" fill="url(#paint16_linear_249_2719)"/>
<path d="M74.8781 113.16V116.888H78.9421V118.088H74.8781V121.928H79.4221V123.128H73.4221V111.96H79.4221V113.16H74.8781Z" fill="url(#paint17_linear_249_2719)"/>
<path d="M94.2172 120.648H89.3532L88.4572 123.128H86.9212L90.9532 112.04H92.6332L96.6492 123.128H95.1132L94.2172 120.648ZM93.8012 119.464L91.7852 113.832L89.7692 119.464H93.8012Z" fill="url(#paint18_linear_249_2719)"/>
<path d="M105.862 121.944H109.766V123.128H104.406V111.976H105.862V121.944Z" fill="url(#paint19_linear_249_2719)"/>
<path d="M129.034 113.16V116.888H133.098V118.088H129.034V121.928H133.578V123.128H127.578V111.96H133.578V113.16H129.034Z" fill="url(#paint20_linear_249_2719)"/>
<path d="M145.317 123.24C144.582 123.24 143.92 123.112 143.333 122.856C142.757 122.589 142.304 122.227 141.974 121.768C141.643 121.299 141.472 120.76 141.461 120.152H143.013C143.067 120.675 143.28 121.117 143.653 121.48C144.037 121.832 144.592 122.008 145.317 122.008C146.011 122.008 146.555 121.837 146.949 121.496C147.355 121.144 147.557 120.696 147.557 120.152C147.557 119.725 147.44 119.379 147.205 119.112C146.971 118.845 146.677 118.643 146.325 118.504C145.973 118.365 145.499 118.216 144.901 118.056C144.165 117.864 143.573 117.672 143.125 117.48C142.688 117.288 142.31 116.989 141.989 116.584C141.68 116.168 141.526 115.613 141.526 114.92C141.526 114.312 141.68 113.773 141.989 113.304C142.299 112.835 142.731 112.472 143.285 112.216C143.851 111.96 144.496 111.832 145.221 111.832C146.267 111.832 147.12 112.093 147.781 112.616C148.453 113.139 148.832 113.832 148.918 114.696H147.317C147.264 114.269 147.04 113.896 146.646 113.576C146.251 113.245 145.728 113.08 145.077 113.08C144.469 113.08 143.974 113.24 143.59 113.56C143.205 113.869 143.013 114.307 143.013 114.872C143.013 115.277 143.125 115.608 143.349 115.864C143.584 116.12 143.867 116.317 144.198 116.456C144.539 116.584 145.013 116.733 145.621 116.904C146.357 117.107 146.949 117.309 147.397 117.512C147.845 117.704 148.229 118.008 148.549 118.424C148.869 118.829 149.03 119.384 149.03 120.088C149.03 120.632 148.885 121.144 148.597 121.624C148.31 122.104 147.883 122.493 147.317 122.792C146.752 123.091 146.086 123.24 145.317 123.24Z" fill="url(#paint21_linear_249_2719)"/>
<path d="M164.036 111.976V113.16H160.996V123.128H159.54V113.16H156.484V111.976H164.036Z" fill="url(#paint22_linear_249_2719)"/>
<path d="M178.42 120.648H173.556L172.66 123.128H171.124L175.156 112.04H176.836L180.852 123.128H179.316L178.42 120.648ZM178.004 119.464L175.988 113.832L173.972 119.464H178.004Z" fill="url(#paint23_linear_249_2719)"/>
<path d="M195.474 111.976V113.16H192.434V123.128H190.978V113.16H187.922V111.976H195.474Z" fill="url(#paint24_linear_249_2719)"/>
<path d="M204.722 113.16V116.888H208.786V118.088H204.722V121.928H209.266V123.128H203.266V111.96H209.266V113.16H204.722Z" fill="url(#paint25_linear_249_2719)"/>
<defs>
<linearGradient id="paint0_linear_249_2719" x1="149.191" y1="15.1429" x2="133.477" y2="66" gradientUnits="userSpaceOnUse">
<stop stop-color="#D4B785" style="stop-color:#D4B785;stop-color:color(display-p3 0.8314 0.7176 0.5216);stop-opacity:1;"/>
<stop offset="1" stop-color="#B08D59" style="stop-color:#B08D59;stop-color:color(display-p3 0.6902 0.5529 0.3490);stop-opacity:1;"/>
</linearGradient>
<linearGradient id="paint1_linear_249_2719" x1="149.191" y1="15.1429" x2="133.477" y2="66" gradientUnits="userSpaceOnUse">
<stop stop-color="#D4B785" style="stop-color:#D4B785;stop-color:color(display-p3 0.8314 0.7176 0.5216);stop-opacity:1;"/>
<stop offset="1" stop-color="#B08D59" style="stop-color:#B08D59;stop-color:color(display-p3 0.6902 0.5529 0.3490);stop-opacity:1;"/>
</linearGradient>
<linearGradient id="paint2_linear_249_2719" x1="149.191" y1="15.1429" x2="133.477" y2="66" gradientUnits="userSpaceOnUse">
<stop stop-color="#D4B785" style="stop-color:#D4B785;stop-color:color(display-p3 0.8314 0.7176 0.5216);stop-opacity:1;"/>
<stop offset="1" stop-color="#B08D59" style="stop-color:#B08D59;stop-color:color(display-p3 0.6902 0.5529 0.3490);stop-opacity:1;"/>
</linearGradient>
<linearGradient id="paint3_linear_249_2719" x1="149.191" y1="15.1429" x2="133.477" y2="66" gradientUnits="userSpaceOnUse">
<stop stop-color="#D4B785" style="stop-color:#D4B785;stop-color:color(display-p3 0.8314 0.7176 0.5216);stop-opacity:1;"/>
<stop offset="1" stop-color="#B08D59" style="stop-color:#B08D59;stop-color:color(display-p3 0.6902 0.5529 0.3490);stop-opacity:1;"/>
</linearGradient>
<linearGradient id="paint4_linear_249_2719" x1="202.775" y1="85.7873" x2="200.664" y2="126.707" gradientUnits="userSpaceOnUse">
<stop stop-color="#D4B785" style="stop-color:#D4B785;stop-color:color(display-p3 0.8314 0.7176 0.5216);stop-opacity:1;"/>
<stop offset="1" stop-color="#B08D59" style="stop-color:#B08D59;stop-color:color(display-p3 0.6902 0.5529 0.3490);stop-opacity:1;"/>
</linearGradient>
<linearGradient id="paint5_linear_249_2719" x1="202.775" y1="85.7873" x2="200.664" y2="126.707" gradientUnits="userSpaceOnUse">
<stop stop-color="#D4B785" style="stop-color:#D4B785;stop-color:color(display-p3 0.8314 0.7176 0.5216);stop-opacity:1;"/>
<stop offset="1" stop-color="#B08D59" style="stop-color:#B08D59;stop-color:color(display-p3 0.6902 0.5529 0.3490);stop-opacity:1;"/>
</linearGradient>
<linearGradient id="paint6_linear_249_2719" x1="202.775" y1="85.7873" x2="200.664" y2="126.707" gradientUnits="userSpaceOnUse">
<stop stop-color="#D4B785" style="stop-color:#D4B785;stop-color:color(display-p3 0.8314 0.7176 0.5216);stop-opacity:1;"/>
<stop offset="1" stop-color="#B08D59" style="stop-color:#B08D59;stop-color:color(display-p3 0.6902 0.5529 0.3490);stop-opacity:1;"/>
</linearGradient>
<linearGradient id="paint7_linear_249_2719" x1="202.775" y1="85.7873" x2="200.664" y2="126.707" gradientUnits="userSpaceOnUse">
<stop stop-color="#D4B785" style="stop-color:#D4B785;stop-color:color(display-p3 0.8314 0.7176 0.5216);stop-opacity:1;"/>
<stop offset="1" stop-color="#B08D59" style="stop-color:#B08D59;stop-color:color(display-p3 0.6902 0.5529 0.3490);stop-opacity:1;"/>
</linearGradient>
<linearGradient id="paint8_linear_249_2719" x1="202.775" y1="85.7873" x2="200.664" y2="126.707" gradientUnits="userSpaceOnUse">
<stop stop-color="#D4B785" style="stop-color:#D4B785;stop-color:color(display-p3 0.8314 0.7176 0.5216);stop-opacity:1;"/>
<stop offset="1" stop-color="#B08D59" style="stop-color:#B08D59;stop-color:color(display-p3 0.6902 0.5529 0.3490);stop-opacity:1;"/>
</linearGradient>
<linearGradient id="paint9_linear_249_2719" x1="202.775" y1="85.7873" x2="200.664" y2="126.707" gradientUnits="userSpaceOnUse">
<stop stop-color="#D4B785" style="stop-color:#D4B785;stop-color:color(display-p3 0.8314 0.7176 0.5216);stop-opacity:1;"/>
<stop offset="1" stop-color="#B08D59" style="stop-color:#B08D59;stop-color:color(display-p3 0.6902 0.5529 0.3490);stop-opacity:1;"/>
</linearGradient>
<linearGradient id="paint10_linear_249_2719" x1="202.775" y1="85.7873" x2="200.664" y2="126.707" gradientUnits="userSpaceOnUse">
<stop stop-color="#D4B785" style="stop-color:#D4B785;stop-color:color(display-p3 0.8314 0.7176 0.5216);stop-opacity:1;"/>
<stop offset="1" stop-color="#B08D59" style="stop-color:#B08D59;stop-color:color(display-p3 0.6902 0.5529 0.3490);stop-opacity:1;"/>
</linearGradient>
<linearGradient id="paint11_linear_249_2719" x1="202.775" y1="85.7873" x2="200.664" y2="126.707" gradientUnits="userSpaceOnUse">
<stop stop-color="#D4B785" style="stop-color:#D4B785;stop-color:color(display-p3 0.8314 0.7176 0.5216);stop-opacity:1;"/>
<stop offset="1" stop-color="#B08D59" style="stop-color:#B08D59;stop-color:color(display-p3 0.6902 0.5529 0.3490);stop-opacity:1;"/>
</linearGradient>
<linearGradient id="paint12_linear_249_2719" x1="202.775" y1="85.7873" x2="200.664" y2="126.707" gradientUnits="userSpaceOnUse">
<stop stop-color="#D4B785" style="stop-color:#D4B785;stop-color:color(display-p3 0.8314 0.7176 0.5216);stop-opacity:1;"/>
<stop offset="1" stop-color="#B08D59" style="stop-color:#B08D59;stop-color:color(display-p3 0.6902 0.5529 0.3490);stop-opacity:1;"/>
</linearGradient>
<linearGradient id="paint13_linear_249_2719" x1="202.775" y1="85.7873" x2="200.664" y2="126.707" gradientUnits="userSpaceOnUse">
<stop stop-color="#D4B785" style="stop-color:#D4B785;stop-color:color(display-p3 0.8314 0.7176 0.5216);stop-opacity:1;"/>
<stop offset="1" stop-color="#B08D59" style="stop-color:#B08D59;stop-color:color(display-p3 0.6902 0.5529 0.3490);stop-opacity:1;"/>
</linearGradient>
<linearGradient id="paint14_linear_249_2719" x1="202.775" y1="85.7873" x2="200.664" y2="126.707" gradientUnits="userSpaceOnUse">
<stop stop-color="#D4B785" style="stop-color:#D4B785;stop-color:color(display-p3 0.8314 0.7176 0.5216);stop-opacity:1;"/>
<stop offset="1" stop-color="#B08D59" style="stop-color:#B08D59;stop-color:color(display-p3 0.6902 0.5529 0.3490);stop-opacity:1;"/>
</linearGradient>
<linearGradient id="paint15_linear_249_2719" x1="202.775" y1="85.7873" x2="200.664" y2="126.707" gradientUnits="userSpaceOnUse">
<stop stop-color="#D4B785" style="stop-color:#D4B785;stop-color:color(display-p3 0.8314 0.7176 0.5216);stop-opacity:1;"/>
<stop offset="1" stop-color="#B08D59" style="stop-color:#B08D59;stop-color:color(display-p3 0.6902 0.5529 0.3490);stop-opacity:1;"/>
</linearGradient>
<linearGradient id="paint16_linear_249_2719" x1="202.775" y1="85.7873" x2="200.664" y2="126.707" gradientUnits="userSpaceOnUse">
<stop stop-color="#D4B785" style="stop-color:#D4B785;stop-color:color(display-p3 0.8314 0.7176 0.5216);stop-opacity:1;"/>
<stop offset="1" stop-color="#B08D59" style="stop-color:#B08D59;stop-color:color(display-p3 0.6902 0.5529 0.3490);stop-opacity:1;"/>
</linearGradient>
<linearGradient id="paint17_linear_249_2719" x1="202.775" y1="85.7873" x2="200.664" y2="126.707" gradientUnits="userSpaceOnUse">
<stop stop-color="#D4B785" style="stop-color:#D4B785;stop-color:color(display-p3 0.8314 0.7176 0.5216);stop-opacity:1;"/>
<stop offset="1" stop-color="#B08D59" style="stop-color:#B08D59;stop-color:color(display-p3 0.6902 0.5529 0.3490);stop-opacity:1;"/>
</linearGradient>
<linearGradient id="paint18_linear_249_2719" x1="202.775" y1="85.7873" x2="200.664" y2="126.707" gradientUnits="userSpaceOnUse">
<stop stop-color="#D4B785" style="stop-color:#D4B785;stop-color:color(display-p3 0.8314 0.7176 0.5216);stop-opacity:1;"/>
<stop offset="1" stop-color="#B08D59" style="stop-color:#B08D59;stop-color:color(display-p3 0.6902 0.5529 0.3490);stop-opacity:1;"/>
</linearGradient>
<linearGradient id="paint19_linear_249_2719" x1="202.775" y1="85.7873" x2="200.664" y2="126.707" gradientUnits="userSpaceOnUse">
<stop stop-color="#D4B785" style="stop-color:#D4B785;stop-color:color(display-p3 0.8314 0.7176 0.5216);stop-opacity:1;"/>
<stop offset="1" stop-color="#B08D59" style="stop-color:#B08D59;stop-color:color(display-p3 0.6902 0.5529 0.3490);stop-opacity:1;"/>
</linearGradient>
<linearGradient id="paint20_linear_249_2719" x1="202.775" y1="85.7873" x2="200.664" y2="126.707" gradientUnits="userSpaceOnUse">
<stop stop-color="#D4B785" style="stop-color:#D4B785;stop-color:color(display-p3 0.8314 0.7176 0.5216);stop-opacity:1;"/>
<stop offset="1" stop-color="#B08D59" style="stop-color:#B08D59;stop-color:color(display-p3 0.6902 0.5529 0.3490);stop-opacity:1;"/>
</linearGradient>
<linearGradient id="paint21_linear_249_2719" x1="202.775" y1="85.7873" x2="200.664" y2="126.707" gradientUnits="userSpaceOnUse">
<stop stop-color="#D4B785" style="stop-color:#D4B785;stop-color:color(display-p3 0.8314 0.7176 0.5216);stop-opacity:1;"/>
<stop offset="1" stop-color="#B08D59" style="stop-color:#B08D59;stop-color:color(display-p3 0.6902 0.5529 0.3490);stop-opacity:1;"/>
</linearGradient>
<linearGradient id="paint22_linear_249_2719" x1="202.775" y1="85.7873" x2="200.664" y2="126.707" gradientUnits="userSpaceOnUse">
<stop stop-color="#D4B785" style="stop-color:#D4B785;stop-color:color(display-p3 0.8314 0.7176 0.5216);stop-opacity:1;"/>
<stop offset="1" stop-color="#B08D59" style="stop-color:#B08D59;stop-color:color(display-p3 0.6902 0.5529 0.3490);stop-opacity:1;"/>
</linearGradient>
<linearGradient id="paint23_linear_249_2719" x1="202.775" y1="85.7873" x2="200.664" y2="126.707" gradientUnits="userSpaceOnUse">
<stop stop-color="#D4B785" style="stop-color:#D4B785;stop-color:color(display-p3 0.8314 0.7176 0.5216);stop-opacity:1;"/>
<stop offset="1" stop-color="#B08D59" style="stop-color:#B08D59;stop-color:color(display-p3 0.6902 0.5529 0.3490);stop-opacity:1;"/>
</linearGradient>
<linearGradient id="paint24_linear_249_2719" x1="202.775" y1="85.7873" x2="200.664" y2="126.707" gradientUnits="userSpaceOnUse">
<stop stop-color="#D4B785" style="stop-color:#D4B785;stop-color:color(display-p3 0.8314 0.7176 0.5216);stop-opacity:1;"/>
<stop offset="1" stop-color="#B08D59" style="stop-color:#B08D59;stop-color:color(display-p3 0.6902 0.5529 0.3490);stop-opacity:1;"/>
</linearGradient>
<linearGradient id="paint25_linear_249_2719" x1="202.775" y1="85.7873" x2="200.664" y2="126.707" gradientUnits="userSpaceOnUse">
<stop stop-color="#D4B785" style="stop-color:#D4B785;stop-color:color(display-p3 0.8314 0.7176 0.5216);stop-opacity:1;"/>
<stop offset="1" stop-color="#B08D59" style="stop-color:#B08D59;stop-color:color(display-p3 0.6902 0.5529 0.3490);stop-opacity:1;"/>
</linearGradient>
</defs>
</svg>
