<svg width="212" height="72" viewBox="0 0 212 72" fill="none" xmlns="http://www.w3.org/2000/svg">
<path d="M93.8644 14.7648L94.1072 15.4341C94.2404 15.801 94.4536 16.1343 94.7314 16.4101C95.0093 16.6858 95.345 16.8974 95.7147 17.0296L96.389 17.2707C96.4024 17.2755 96.4139 17.2843 96.422 17.2958C96.4301 17.3074 96.4345 17.3211 96.4345 17.3352C96.4345 17.3493 96.4301 17.363 96.422 17.3745C96.4139 17.3861 96.4024 17.3949 96.389 17.3997L95.7147 17.6407C95.345 17.773 95.0093 17.9845 94.7314 18.2603C94.4536 18.5361 94.2404 18.8693 94.1072 19.2363L93.8644 19.9056C93.8595 19.9188 93.8506 19.9302 93.839 19.9383C93.8274 19.9463 93.8135 19.9506 93.7994 19.9506C93.7852 19.9506 93.7713 19.9463 93.7597 19.9383C93.7481 19.9302 93.7392 19.9188 93.7343 19.9056L93.4915 19.2363C93.3583 18.8693 93.1451 18.5361 92.8673 18.2603C92.5894 17.9845 92.2537 17.773 91.884 17.6407L91.2097 17.3997C91.1963 17.3949 91.1848 17.3861 91.1767 17.3745C91.1686 17.363 91.1642 17.3493 91.1642 17.3352C91.1642 17.3211 91.1686 17.3074 91.1767 17.2958C91.1848 17.2843 91.1963 17.2755 91.2097 17.2707L91.884 17.0296C92.2537 16.8974 92.5894 16.6858 92.8673 16.4101C93.1451 16.1343 93.3583 15.801 93.4915 15.4341L93.7343 14.7648C93.7391 14.7515 93.7479 14.7399 93.7595 14.7317C93.7712 14.7235 93.7851 14.7191 93.7994 14.7191C93.8136 14.7191 93.8275 14.7235 93.8392 14.7317C93.8508 14.7399 93.8596 14.7515 93.8644 14.7648Z" fill="url(#paint0_linear_713_1975)"/>
<path d="M101.078 12.1262L101.2 12.4609C101.266 12.6443 101.373 12.811 101.512 12.9489C101.651 13.0868 101.819 13.1925 102.004 13.2587L102.341 13.3792C102.347 13.3816 102.353 13.386 102.357 13.3917C102.361 13.3975 102.363 13.4044 102.363 13.4114C102.363 13.4185 102.361 13.4253 102.357 13.4311C102.353 13.4369 102.347 13.4413 102.341 13.4437L102.004 13.5642C101.819 13.6303 101.651 13.7361 101.512 13.874C101.373 14.0119 101.266 14.1785 101.2 14.362L101.078 14.6966C101.076 14.7032 101.072 14.7089 101.066 14.713C101.06 14.717 101.053 14.7191 101.046 14.7191C101.039 14.7191 101.032 14.717 101.026 14.713C101.02 14.7089 101.016 14.7032 101.013 14.6966L100.892 14.362C100.825 14.1785 100.719 14.0119 100.58 13.874C100.441 13.7361 100.273 13.6303 100.088 13.5642L99.751 13.4437C99.7444 13.4413 99.7386 13.4369 99.7346 13.4311C99.7305 13.4253 99.7283 13.4185 99.7283 13.4114C99.7283 13.4044 99.7305 13.3975 99.7346 13.3917C99.7386 13.386 99.7444 13.3816 99.751 13.3792L100.088 13.2587C100.273 13.1925 100.441 13.0868 100.58 12.9489C100.719 12.811 100.825 12.6443 100.892 12.4609L101.013 12.1262C101.016 12.1196 101.02 12.1138 101.026 12.1097C101.032 12.1056 101.039 12.1034 101.046 12.1034C101.053 12.1034 101.06 12.1056 101.066 12.1097C101.072 12.1138 101.076 12.1196 101.078 12.1262Z" fill="url(#paint1_linear_713_1975)"/>
<path d="M95.1494 6.02283L95.2708 6.35748C95.3374 6.54094 95.444 6.70756 95.5829 6.84545C95.7219 6.98335 95.8897 7.08913 96.0746 7.15525L96.4118 7.27575C96.4184 7.27818 96.4242 7.28257 96.4282 7.28834C96.4323 7.29411 96.4345 7.30098 96.4345 7.30802C96.4345 7.31506 96.4323 7.32193 96.4282 7.3277C96.4242 7.33347 96.4184 7.33786 96.4118 7.34028L96.0746 7.46079C95.8897 7.52691 95.7219 7.63269 95.5829 7.77058C95.444 7.90848 95.3374 8.07509 95.2708 8.25856L95.1494 8.59321C95.147 8.59982 95.1425 8.60552 95.1367 8.60955C95.1309 8.61358 95.124 8.61574 95.1169 8.61574C95.1098 8.61574 95.1029 8.61358 95.0971 8.60955C95.0913 8.60552 95.0868 8.59982 95.0844 8.59321L94.963 8.25856C94.8964 8.07509 94.7898 7.90848 94.6509 7.77058C94.5119 7.63269 94.3441 7.52691 94.1592 7.46079L93.8221 7.34028C93.8154 7.33786 93.8097 7.33347 93.8056 7.3277C93.8015 7.32193 93.7994 7.31506 93.7994 7.30802C93.7994 7.30098 93.8015 7.29411 93.8056 7.28834C93.8097 7.28257 93.8154 7.27818 93.8221 7.27575L94.1592 7.15525C94.3441 7.08913 94.5119 6.98335 94.6509 6.84545C94.7898 6.70756 94.8964 6.54094 94.963 6.35748L95.0844 6.02283C95.0868 6.01615 95.0912 6.01037 95.097 6.00628C95.1028 6.0022 95.1098 6 95.1169 6C95.124 6 95.131 6.0022 95.1368 6.00628C95.1426 6.01037 95.147 6.01615 95.1494 6.02283Z" fill="url(#paint2_linear_713_1975)"/>
<path d="M110.708 14.7191C115.266 14.7191 119.175 17.4768 120.836 21.403C119.094 17.8342 115.41 15.3731 111.147 15.3731C105.205 15.3731 100.387 20.1551 100.387 26.054C100.387 30.2858 102.866 33.9424 106.462 35.6715C102.506 34.0234 99.7283 30.143 99.7283 25.6181C99.7283 19.5988 104.644 14.7191 110.708 14.7191Z" fill="url(#paint3_linear_713_1975)"/>
<path d="M47.4047 52.3893V52.4401L47.3666 52.4528C46.54 52.847 45.6499 53.0632 44.747 53.0632C42.2673 53.0632 40.576 51.2829 40.576 48.8287C40.576 46.4126 42.1402 44.5178 44.6453 44.5178C45.0776 44.5178 45.4591 44.5941 45.8279 44.6832C46.1712 44.7594 46.4128 44.8485 46.8834 44.8357C47.0105 44.8357 47.0995 44.7849 47.1377 44.6577L47.1631 44.5941L47.4556 44.645L47.4429 44.7213C47.392 45.0138 47.3666 45.3063 47.3666 45.586C47.3539 45.8785 47.3666 46.171 47.3666 46.4762V46.5525H47.0487C46.8198 45.6242 45.2938 45.2554 44.4545 45.2554C42.5725 45.2554 41.6824 46.7432 41.6824 48.4981C41.6824 50.4945 42.8777 52.2621 44.9886 52.2621C45.9042 52.2621 46.8452 51.9951 47.2394 51.1303L47.2648 51.0668L47.5446 51.1431L47.5319 51.2066C47.4556 51.6008 47.4174 51.9951 47.4047 52.3893Z" fill="url(#paint4_linear_713_1975)"/>
<path d="M59.131 52.6817V52.9488C58.368 52.9233 57.4524 52.9361 56.6895 52.9488V52.6563C56.8293 52.6182 56.9819 52.58 57.1091 52.5037C57.1854 52.4401 57.249 52.3638 57.249 52.2239C57.249 52.0078 56.6259 50.4691 56.4987 50.1385H53.6757C53.5739 50.3674 53.3959 50.7616 53.2433 51.1431C53.078 51.5754 52.9381 51.9823 52.9381 52.1858C52.9381 52.5037 53.1925 52.5927 53.4468 52.6563V52.9488C52.7982 52.9361 51.9844 52.9233 51.3359 52.9488V52.6563C51.6156 52.58 51.7937 52.4783 51.87 52.3638C51.9208 52.313 51.9463 52.2367 51.9844 52.1604C52.0225 52.0714 52.0607 51.9696 52.0988 51.8552L54.9727 44.6323H55.3924L58.279 51.7534C58.4697 52.2367 58.6351 52.5037 59.131 52.6817ZM53.9554 49.4391H56.2062L55.1762 46.8068C55.1762 46.7813 55.1762 46.7686 55.1635 46.7432L55.1126 46.6033C55.1126 46.5906 55.1126 46.5906 55.0999 46.5906V46.5525C55.049 46.6288 55.0109 46.705 54.9855 46.7941C54.7438 47.3917 54.4895 48.0021 54.2606 48.6125L53.9554 49.4391Z" fill="url(#paint5_linear_713_1975)"/>
<path d="M70.4544 45.9421C70.4544 46.2218 70.4544 46.5143 70.4544 46.7941L70.4163 48.5108C70.4163 48.8032 70.4163 49.083 70.4163 49.3755C70.4163 49.6807 70.4163 49.9732 70.4163 50.2783L70.4417 52.0968C70.4417 52.3893 70.4417 52.6945 70.4417 52.9996V53.0759H70.1492L70.1238 53.0505C68.1655 51.0922 66.3725 49.0067 64.6176 46.8704C64.643 48.0276 64.6176 49.172 64.6176 50.3292C64.6176 50.8506 64.6176 51.3847 64.643 51.9188C64.6685 52.4274 64.7448 52.5164 65.2661 52.6563L65.317 52.669V52.9488H65.2407C64.5032 52.9361 63.7529 52.9233 63.0153 52.9488H62.939V52.669L63.0026 52.6563C63.5367 52.5419 63.5749 52.4274 63.613 51.9188C63.6512 51.2575 63.6639 50.5963 63.6639 49.935C63.6639 48.1547 63.6639 46.3871 63.6257 44.6068V44.5306H63.9309L63.9564 44.556C64.8719 45.6877 65.7748 46.8195 66.7158 47.9385C67.6059 49.0067 68.5215 50.0495 69.5007 51.0286C69.5007 49.3373 69.4498 47.6588 69.4498 45.9675C69.4498 45.4334 69.3099 45.1409 68.7504 44.9629L68.6996 44.9375V44.6704H68.7759C69.1573 44.6959 69.5515 44.6959 69.933 44.6959C70.3018 44.6959 70.6833 44.6959 71.0648 44.6704H71.1411V44.9502L71.0902 44.9629C70.7469 45.0519 70.607 45.1537 70.5307 45.2808C70.4544 45.4207 70.4544 45.6114 70.4544 45.9421Z" fill="url(#paint6_linear_713_1975)"/>
<path d="M82.7382 52.6817V52.9488C81.9752 52.9233 81.0597 52.9361 80.2967 52.9488V52.6563C80.4366 52.6182 80.5891 52.58 80.7163 52.5037C80.7926 52.4401 80.8562 52.3638 80.8562 52.2239C80.8562 52.0078 80.2331 50.4691 80.1059 50.1385H77.2829C77.1812 50.3674 77.0031 50.7616 76.8505 51.1431C76.6852 51.5754 76.5453 51.9823 76.5453 52.1858C76.5453 52.5037 76.7997 52.5927 77.054 52.6563V52.9488C76.4055 52.9361 75.5916 52.9233 74.9431 52.9488V52.6563C75.2228 52.58 75.4009 52.4783 75.4772 52.3638C75.528 52.313 75.5535 52.2367 75.5916 52.1604C75.6298 52.0714 75.6679 51.9696 75.7061 51.8552L78.58 44.6323H78.9996L81.8862 51.7534C82.077 52.2367 82.2423 52.5037 82.7382 52.6817ZM77.5627 49.4391H79.8134L78.7834 46.8068C78.7834 46.7813 78.7834 46.7686 78.7707 46.7432L78.7198 46.6033C78.7198 46.5906 78.7198 46.5906 78.7071 46.5906V46.5525C78.6563 46.6288 78.6181 46.705 78.5927 46.7941C78.3511 47.3917 78.0967 48.0021 77.8678 48.6125L77.5627 49.4391Z" fill="url(#paint7_linear_713_1975)"/>
<path d="M90.6791 53.0251C89.3311 53.0251 87.9959 52.9488 86.648 52.9488H86.5717V52.6817L86.6226 52.669C87.1948 52.4783 87.2838 52.2748 87.2965 51.7153C87.322 50.7489 87.322 49.7697 87.322 48.8032C87.322 48.5616 87.322 48.3073 87.322 48.0657L87.2965 46.6033C87.2965 46.349 87.2965 46.1074 87.2965 45.8658C87.2965 45.2935 87.2202 45.1282 86.6607 44.9629L86.6098 44.9375V44.6704H86.6861C87.4618 44.6959 88.2503 44.6959 89.0259 44.6704H89.1022V44.9375L89.0514 44.9629C88.4156 45.1664 88.4028 45.3317 88.4028 45.9929C88.3901 47.3663 88.3901 48.7397 88.3901 50.1257C88.3901 50.6726 88.3647 51.2575 88.4028 51.817C88.441 52.1858 88.5554 52.3384 88.8988 52.3384H89.2421C89.5092 52.3384 89.7635 52.3384 89.9797 52.3257C90.7172 52.2875 91.1241 51.9442 91.353 51.2448L91.3785 51.1812L91.6837 51.2321L91.671 51.3084C91.6328 51.4864 91.6328 51.6771 91.6201 51.8679C91.5819 52.5164 91.5056 53.0251 90.6791 53.0251Z" fill="url(#paint8_linear_713_1975)"/>
<path d="M100.547 52.6945C100.356 52.9615 100 52.9996 99.25 52.9996C98.0419 52.9996 96.8466 52.9488 95.6513 52.9488H95.575V52.6817L95.6258 52.669C96.0073 52.5673 96.1345 52.4147 96.1981 52.2367C96.2235 52.1349 96.2362 52.0332 96.2362 51.8933V51.4228C96.2489 50.1385 96.2617 48.8541 96.2617 47.5825C96.2617 47.023 96.2744 46.4507 96.2362 45.8912C96.1981 45.3953 96.1345 45.0901 95.6385 44.9629L95.5877 44.9502V44.6704H100.585L100.572 44.7594C100.522 45.1282 100.483 45.497 100.483 45.8658V45.9421H100.166L100.153 45.8785C100.051 45.4716 99.8349 45.3571 99.4153 45.3571H97.368C97.3298 46.2981 97.3171 47.3282 97.3171 48.2692H99.1991C99.7078 48.2692 99.8731 48.0911 100.102 47.6206H100.394C100.344 48.2692 100.293 48.9813 100.293 49.6171V49.6934L99.9875 49.7061C99.9112 49.4772 99.8477 48.9686 99.2754 48.9686H97.3171C97.3171 49.7443 97.3298 50.52 97.3298 51.3084C97.3298 51.7534 97.3425 51.9951 97.4188 52.1222C97.4316 52.1222 97.4316 52.1349 97.4443 52.1477L97.4824 52.1858C97.4824 52.1985 97.4951 52.1985 97.4951 52.2112C97.6096 52.3002 97.8385 52.3002 98.3217 52.3002H98.5379C99.6061 52.3002 100.038 52.2367 100.585 51.2702L100.611 51.2194L100.89 51.2957L100.878 51.3592C100.789 51.7026 100.751 51.9823 100.712 52.1858C100.674 52.402 100.623 52.5673 100.547 52.6945Z" fill="url(#paint9_linear_713_1975)"/>
<path d="M111.447 46.1837H111.116V46.1074C111.104 45.5987 110.837 45.5351 110.341 45.5351C110.214 45.5351 110.086 45.5351 109.947 45.5351L109.171 45.5097C109.044 45.5097 108.904 45.5097 108.777 45.5097C108.738 46.7305 108.738 47.9385 108.738 49.1593C108.738 50.0622 108.738 50.9905 108.789 51.8933C108.815 52.3765 108.942 52.5291 109.387 52.669L109.438 52.6817V52.9488H109.362C108.611 52.9233 107.848 52.9233 107.098 52.9488H107.022V52.669L107.073 52.6563C107.594 52.5164 107.645 52.3638 107.658 51.8425C107.696 50.6217 107.708 49.4136 107.708 48.1929L107.696 46.3999C107.696 46.1074 107.696 45.8022 107.696 45.5097C107.581 45.5097 107.467 45.5097 107.352 45.5097L106.653 45.497C106.539 45.497 106.424 45.497 106.31 45.497C105.521 45.497 105.28 45.5097 104.924 46.2345L104.898 46.2981L104.58 46.1582L104.606 46.0947C104.809 45.5351 104.936 44.9375 104.962 44.3525V44.2762H105.305C105.305 44.6831 105.852 44.7086 106.157 44.7467C106.653 44.7976 107.187 44.7722 107.403 44.7722H110.493C110.964 44.7722 111.231 44.6577 111.383 44.2126L111.409 44.1491L111.727 44.2126C111.562 44.7849 111.485 45.5987 111.447 46.1837Z" fill="url(#paint10_linear_713_1975)"/>
<path d="M122.015 46.1837H121.684V46.1074C121.672 45.5987 121.405 45.5351 120.909 45.5351C120.782 45.5351 120.654 45.5351 120.515 45.5351L119.739 45.5097C119.612 45.5097 119.472 45.5097 119.345 45.5097C119.306 46.7305 119.306 47.9385 119.306 49.1593C119.306 50.0622 119.306 50.9905 119.357 51.8933C119.383 52.3765 119.51 52.5291 119.955 52.669L120.006 52.6817V52.9488H119.93C119.179 52.9233 118.416 52.9233 117.666 52.9488H117.59V52.669L117.641 52.6563C118.162 52.5164 118.213 52.3638 118.226 51.8425C118.264 50.6217 118.276 49.4136 118.276 48.1929L118.264 46.3999C118.264 46.1074 118.264 45.8022 118.264 45.5097C118.149 45.5097 118.035 45.5097 117.92 45.5097L117.221 45.497C117.107 45.497 116.992 45.497 116.878 45.497C116.089 45.497 115.848 45.5097 115.492 46.2345L115.466 46.2981L115.148 46.1582L115.174 46.0947C115.377 45.5351 115.504 44.9375 115.53 44.3525V44.2762H115.873C115.873 44.6831 116.42 44.7086 116.725 44.7467C117.221 44.7976 117.755 44.7722 117.971 44.7722H121.061C121.532 44.7722 121.799 44.6577 121.951 44.2126L121.977 44.1491L122.295 44.2126C122.13 44.7849 122.053 45.5987 122.015 46.1837Z" fill="url(#paint11_linear_713_1975)"/>
<path d="M125.48 48.8287C125.48 46.438 127.159 44.5051 129.613 44.5051C132.067 44.5051 133.669 46.3871 133.669 48.7651C133.669 51.1812 132.08 53.0887 129.587 53.0887C127.133 53.0887 125.48 51.2321 125.48 48.8287ZM126.663 48.5998C126.663 50.4691 127.566 52.3893 129.638 52.3893C131.546 52.3893 132.487 50.787 132.487 49.0067C132.487 47.112 131.609 45.2172 129.524 45.2172C127.616 45.2172 126.663 46.8322 126.663 48.5998Z" fill="url(#paint12_linear_713_1975)"/>
<path d="M144.601 52.758C144.512 52.6182 144.474 52.4274 144.448 52.1858C144.423 51.9569 144.385 51.639 144.321 51.2448L144.308 51.1685L144.664 51.1049L144.677 51.1812C144.842 51.9696 145.3 52.3765 146.114 52.3765C147.03 52.3765 147.831 51.9823 147.831 51.0032C147.831 50.3419 147.297 49.9732 146.801 49.6425C146.597 49.5154 146.394 49.3882 146.178 49.2483C145.338 48.727 144.461 48.0784 144.461 46.8068C144.461 45.4716 145.338 44.5433 146.686 44.5433C147.119 44.5433 147.551 44.6577 147.983 44.6577C148.098 44.6577 148.327 44.5814 148.416 44.5178L148.594 44.5814L148.581 44.645C148.492 45.1918 148.479 45.7768 148.505 46.3363V46.4126H148.161L148.149 46.349C147.971 45.6114 147.513 45.2681 146.75 45.2681C146.038 45.2681 145.389 45.5987 145.389 46.349C145.389 47.3917 146.267 47.964 147.068 48.4345C147.92 48.9686 148.823 49.5408 148.823 50.7361C148.823 52.313 147.627 53.0759 146.19 53.0759C145.224 53.0759 144.792 53.0378 144.601 52.758Z" fill="url(#paint13_linear_713_1975)"/>
<path d="M160.051 53.521L160 53.5337C159.809 53.5719 159.606 53.5973 159.402 53.5973C158.182 53.5973 157.355 52.6945 156.668 51.7916C156.312 51.3338 155.982 50.7361 155.651 50.2529C155.371 49.846 155.092 49.4518 154.799 49.1339V49.4518C154.799 49.6425 154.799 49.8333 154.799 50.0367L154.837 51.1939C154.837 51.3847 154.837 51.5881 154.837 51.7789C154.837 52.3002 154.863 52.5164 155.384 52.669L155.435 52.6817V52.9488H155.359C154.659 52.9233 153.96 52.9233 153.26 52.9488H153.184V52.6817L153.235 52.669C153.527 52.58 153.642 52.4656 153.693 52.3511C153.731 52.2875 153.744 52.2112 153.744 52.1095C153.756 52.0078 153.756 51.8933 153.756 51.7534C153.756 51.4864 153.756 51.2194 153.756 50.9523L153.782 49.3373C153.782 49.0703 153.782 48.8032 153.782 48.5362C153.782 48.32 153.782 48.1039 153.782 47.8877L153.769 46.5779C153.769 46.3617 153.769 46.1455 153.769 45.9294C153.769 45.3953 153.744 45.1282 153.21 44.9629L153.159 44.9375V44.6704H153.235C153.934 44.6959 154.634 44.6959 155.333 44.6704H155.409V44.9375L155.359 44.9629C155.079 45.0774 154.952 45.1918 154.901 45.319C154.863 45.3953 154.85 45.4843 154.837 45.586V45.9548C154.837 46.7941 154.812 47.6079 154.799 48.4472C154.99 48.231 155.651 47.5062 156.261 46.8449C156.999 46.0565 157.622 45.319 157.622 45.1664C157.622 45.1155 157.597 45.0774 157.546 45.0392C157.482 45.0011 157.419 44.9756 157.355 44.9629L157.292 44.9502V44.6704H157.368C158.067 44.6959 158.754 44.6959 159.453 44.6704H159.53V44.9375C158.983 45.0646 158.538 45.3825 158.131 45.8276L155.651 48.5235C156.261 49.1975 156.821 49.935 157.33 50.6598C157.368 50.7107 157.419 50.7743 157.482 50.8887C158.08 51.7789 158.957 53.1904 159.962 53.1904C160.013 53.1904 160.038 53.1904 160.102 53.1904L160.051 53.521Z" fill="url(#paint14_linear_713_1975)"/>
<path d="M170.547 45.4334C170.419 45.586 170.292 45.7386 170.178 45.9039L170.038 46.1201C170.012 46.1455 169.987 46.1837 169.962 46.2218L168.194 48.8287V51.5118C168.194 52.0968 168.219 52.5164 168.817 52.6563L168.881 52.669V52.9488H168.804C168.041 52.9233 167.266 52.9233 166.503 52.9488H166.426V52.669L166.49 52.6563C167.126 52.5291 167.151 52.0332 167.151 51.4228V49.0194L165.015 46.3363C164.875 46.171 164.773 46.0056 164.672 45.8658C164.316 45.3825 164.01 45.1155 163.4 44.9629L163.349 44.9502V44.6704H163.425C163.87 44.6832 164.316 44.6959 164.761 44.6959C165.218 44.6959 165.663 44.6832 166.121 44.6704H166.198V44.9502L166.134 44.9629C165.905 45.0011 165.676 45.1028 165.676 45.319C165.676 45.4588 166.083 46.0692 166.579 46.7305C167.011 47.3027 167.469 47.9004 167.685 48.1801C167.863 47.9004 168.27 47.3409 168.639 46.7813C169.071 46.1328 169.427 45.5351 169.427 45.3698C169.427 45.1155 169.237 45.0265 168.97 44.9629L168.906 44.9502V44.6704H168.982C169.771 44.6959 170.559 44.7086 171.348 44.6704H171.424V44.9502L171.36 44.9629C171.004 45.0392 170.763 45.2172 170.547 45.4334Z" fill="url(#paint15_linear_713_1975)"/>
<path d="M68.9546 65.9407L67.5473 63.5245H66.6148V65.9407H65.8433V60.0318H67.7508C68.1972 60.0318 68.5731 60.1081 68.8783 60.2607C69.1891 60.4133 69.4208 60.6196 69.5734 60.8795C69.726 61.1395 69.8023 61.4362 69.8023 61.7697C69.8023 62.1766 69.6836 62.5355 69.4463 62.8463C69.2146 63.1572 68.8641 63.3635 68.3951 63.4652L69.8786 65.9407H68.9546ZM66.6148 62.9057H67.7508C68.169 62.9057 68.4827 62.804 68.6918 62.6005C68.9009 62.3914 69.0054 62.1144 69.0054 61.7697C69.0054 61.4193 68.9009 61.148 68.6918 60.9558C68.4883 60.7637 68.1746 60.6676 67.7508 60.6676H66.6148V62.9057Z" fill="url(#paint16_linear_713_1975)"/>
<path d="M74.9516 60.6591V62.6344H77.1049V63.2702H74.9516V65.3048H77.3592V65.9407H74.1801V60.0233H77.3592V60.6591H74.9516Z" fill="url(#paint17_linear_713_1975)"/>
<path d="M85.1984 64.6266H82.6212L82.1465 65.9407H81.3326L83.469 60.0657H84.3591L86.487 65.9407H85.6731L85.1984 64.6266ZM84.978 63.9993L83.9098 61.0152L82.8416 63.9993H84.978Z" fill="url(#paint18_linear_713_1975)"/>
<path d="M91.3686 65.3133H93.4371V65.9407H90.5971V60.0318H91.3686V65.3133Z" fill="url(#paint19_linear_713_1975)"/>
<path d="M103.646 60.6591V62.6344H105.799V63.2702H103.646V65.3048H106.054V65.9407H102.875V60.0233H106.054V60.6591H103.646Z" fill="url(#paint20_linear_713_1975)"/>
<path d="M112.274 66C111.884 66 111.533 65.9322 111.223 65.7965C110.917 65.6552 110.677 65.4631 110.502 65.2201C110.327 64.9714 110.236 64.686 110.231 64.3638H111.053C111.081 64.6408 111.194 64.8753 111.392 65.0675C111.596 65.254 111.889 65.3472 112.274 65.3472C112.641 65.3472 112.929 65.2568 113.138 65.0759C113.353 64.8894 113.461 64.6521 113.461 64.3638C113.461 64.1378 113.398 63.9541 113.274 63.8128C113.15 63.6715 112.994 63.5641 112.808 63.4906C112.621 63.4172 112.37 63.338 112.053 63.2533C111.663 63.1515 111.35 63.0498 111.112 62.9481C110.881 62.8463 110.68 62.6881 110.51 62.4733C110.347 62.2529 110.265 61.959 110.265 61.5917C110.265 61.2695 110.347 60.9841 110.51 60.7354C110.674 60.4868 110.903 60.2946 111.197 60.159C111.497 60.0233 111.839 59.9555 112.223 59.9555C112.777 59.9555 113.229 60.094 113.579 60.3709C113.935 60.6478 114.136 61.0152 114.181 61.473H113.333C113.305 61.2469 113.187 61.0491 112.977 60.8795C112.768 60.7043 112.491 60.6167 112.147 60.6167C111.824 60.6167 111.562 60.7015 111.358 60.8711C111.155 61.035 111.053 61.2667 111.053 61.5662C111.053 61.781 111.112 61.9562 111.231 62.0918C111.355 62.2275 111.505 62.332 111.68 62.4055C111.861 62.4733 112.113 62.5525 112.435 62.6429C112.825 62.7503 113.138 62.8576 113.376 62.965C113.613 63.0668 113.817 63.2278 113.986 63.4482C114.156 63.663 114.241 63.9569 114.241 64.3299C114.241 64.6182 114.164 64.8894 114.012 65.1438C113.859 65.3981 113.633 65.6044 113.333 65.7626C113.034 65.9209 112.681 66 112.274 66Z" fill="url(#paint21_linear_713_1975)"/>
<path d="M122.192 60.0318V60.6591H120.581V65.9407H119.81V60.6591H118.19V60.0318H122.192Z" fill="url(#paint22_linear_713_1975)"/>
<path d="M129.813 64.6266H127.236L126.761 65.9407H125.947L128.084 60.0657H128.974L131.102 65.9407H130.288L129.813 64.6266ZM129.593 63.9993L128.525 61.0152L127.456 63.9993H129.593Z" fill="url(#paint23_linear_713_1975)"/>
<path d="M138.849 60.0318V60.6591H137.238V65.9407H136.467V60.6591H134.847V60.0318H138.849Z" fill="url(#paint24_linear_713_1975)"/>
<path d="M143.749 60.6591V62.6344H145.902V63.2702H143.749V65.3048H146.157V65.9407H142.978V60.0233H146.157V60.6591H143.749Z" fill="url(#paint25_linear_713_1975)"/>
<defs>
<linearGradient id="paint0_linear_713_1975" x1="142.718" y1="11.5102" x2="134.426" y2="70.0276" gradientUnits="userSpaceOnUse">
<stop stop-color="#D4B785"/>
<stop offset="1" stop-color="#B08D59"/>
</linearGradient>
<linearGradient id="paint1_linear_713_1975" x1="142.718" y1="11.5102" x2="134.426" y2="70.0276" gradientUnits="userSpaceOnUse">
<stop stop-color="#D4B785"/>
<stop offset="1" stop-color="#B08D59"/>
</linearGradient>
<linearGradient id="paint2_linear_713_1975" x1="142.718" y1="11.5102" x2="134.426" y2="70.0276" gradientUnits="userSpaceOnUse">
<stop stop-color="#D4B785"/>
<stop offset="1" stop-color="#B08D59"/>
</linearGradient>
<linearGradient id="paint3_linear_713_1975" x1="142.718" y1="11.5102" x2="134.426" y2="70.0276" gradientUnits="userSpaceOnUse">
<stop stop-color="#D4B785"/>
<stop offset="1" stop-color="#B08D59"/>
</linearGradient>
<linearGradient id="paint4_linear_713_1975" x1="142.718" y1="11.5102" x2="134.426" y2="70.0276" gradientUnits="userSpaceOnUse">
<stop stop-color="#D4B785"/>
<stop offset="1" stop-color="#B08D59"/>
</linearGradient>
<linearGradient id="paint5_linear_713_1975" x1="142.718" y1="11.5102" x2="134.426" y2="70.0276" gradientUnits="userSpaceOnUse">
<stop stop-color="#D4B785"/>
<stop offset="1" stop-color="#B08D59"/>
</linearGradient>
<linearGradient id="paint6_linear_713_1975" x1="142.718" y1="11.5102" x2="134.426" y2="70.0276" gradientUnits="userSpaceOnUse">
<stop stop-color="#D4B785"/>
<stop offset="1" stop-color="#B08D59"/>
</linearGradient>
<linearGradient id="paint7_linear_713_1975" x1="142.718" y1="11.5102" x2="134.426" y2="70.0276" gradientUnits="userSpaceOnUse">
<stop stop-color="#D4B785"/>
<stop offset="1" stop-color="#B08D59"/>
</linearGradient>
<linearGradient id="paint8_linear_713_1975" x1="142.718" y1="11.5102" x2="134.426" y2="70.0276" gradientUnits="userSpaceOnUse">
<stop stop-color="#D4B785"/>
<stop offset="1" stop-color="#B08D59"/>
</linearGradient>
<linearGradient id="paint9_linear_713_1975" x1="142.718" y1="11.5102" x2="134.426" y2="70.0276" gradientUnits="userSpaceOnUse">
<stop stop-color="#D4B785"/>
<stop offset="1" stop-color="#B08D59"/>
</linearGradient>
<linearGradient id="paint10_linear_713_1975" x1="142.718" y1="11.5102" x2="134.426" y2="70.0276" gradientUnits="userSpaceOnUse">
<stop stop-color="#D4B785"/>
<stop offset="1" stop-color="#B08D59"/>
</linearGradient>
<linearGradient id="paint11_linear_713_1975" x1="142.718" y1="11.5102" x2="134.426" y2="70.0276" gradientUnits="userSpaceOnUse">
<stop stop-color="#D4B785"/>
<stop offset="1" stop-color="#B08D59"/>
</linearGradient>
<linearGradient id="paint12_linear_713_1975" x1="142.718" y1="11.5102" x2="134.426" y2="70.0276" gradientUnits="userSpaceOnUse">
<stop stop-color="#D4B785"/>
<stop offset="1" stop-color="#B08D59"/>
</linearGradient>
<linearGradient id="paint13_linear_713_1975" x1="142.718" y1="11.5102" x2="134.426" y2="70.0276" gradientUnits="userSpaceOnUse">
<stop stop-color="#D4B785"/>
<stop offset="1" stop-color="#B08D59"/>
</linearGradient>
<linearGradient id="paint14_linear_713_1975" x1="142.718" y1="11.5102" x2="134.426" y2="70.0276" gradientUnits="userSpaceOnUse">
<stop stop-color="#D4B785"/>
<stop offset="1" stop-color="#B08D59"/>
</linearGradient>
<linearGradient id="paint15_linear_713_1975" x1="142.718" y1="11.5102" x2="134.426" y2="70.0276" gradientUnits="userSpaceOnUse">
<stop stop-color="#D4B785"/>
<stop offset="1" stop-color="#B08D59"/>
</linearGradient>
<linearGradient id="paint16_linear_713_1975" x1="142.718" y1="11.5102" x2="134.426" y2="70.0276" gradientUnits="userSpaceOnUse">
<stop stop-color="#D4B785"/>
<stop offset="1" stop-color="#B08D59"/>
</linearGradient>
<linearGradient id="paint17_linear_713_1975" x1="142.718" y1="11.5102" x2="134.426" y2="70.0276" gradientUnits="userSpaceOnUse">
<stop stop-color="#D4B785"/>
<stop offset="1" stop-color="#B08D59"/>
</linearGradient>
<linearGradient id="paint18_linear_713_1975" x1="142.718" y1="11.5102" x2="134.426" y2="70.0276" gradientUnits="userSpaceOnUse">
<stop stop-color="#D4B785"/>
<stop offset="1" stop-color="#B08D59"/>
</linearGradient>
<linearGradient id="paint19_linear_713_1975" x1="142.718" y1="11.5102" x2="134.426" y2="70.0276" gradientUnits="userSpaceOnUse">
<stop stop-color="#D4B785"/>
<stop offset="1" stop-color="#B08D59"/>
</linearGradient>
<linearGradient id="paint20_linear_713_1975" x1="142.718" y1="11.5102" x2="134.426" y2="70.0276" gradientUnits="userSpaceOnUse">
<stop stop-color="#D4B785"/>
<stop offset="1" stop-color="#B08D59"/>
</linearGradient>
<linearGradient id="paint21_linear_713_1975" x1="142.718" y1="11.5102" x2="134.426" y2="70.0276" gradientUnits="userSpaceOnUse">
<stop stop-color="#D4B785"/>
<stop offset="1" stop-color="#B08D59"/>
</linearGradient>
<linearGradient id="paint22_linear_713_1975" x1="142.718" y1="11.5102" x2="134.426" y2="70.0276" gradientUnits="userSpaceOnUse">
<stop stop-color="#D4B785"/>
<stop offset="1" stop-color="#B08D59"/>
</linearGradient>
<linearGradient id="paint23_linear_713_1975" x1="142.718" y1="11.5102" x2="134.426" y2="70.0276" gradientUnits="userSpaceOnUse">
<stop stop-color="#D4B785"/>
<stop offset="1" stop-color="#B08D59"/>
</linearGradient>
<linearGradient id="paint24_linear_713_1975" x1="142.718" y1="11.5102" x2="134.426" y2="70.0276" gradientUnits="userSpaceOnUse">
<stop stop-color="#D4B785"/>
<stop offset="1" stop-color="#B08D59"/>
</linearGradient>
<linearGradient id="paint25_linear_713_1975" x1="142.718" y1="11.5102" x2="134.426" y2="70.0276" gradientUnits="userSpaceOnUse">
<stop stop-color="#D4B785"/>
<stop offset="1" stop-color="#B08D59"/>
</linearGradient>
</defs>
</svg>
