<svg width="36" height="36" viewBox="0 0 36 36" fill="none" xmlns="http://www.w3.org/2000/svg">
<rect width="36" height="36" rx="8" fill="#D4B785" fill-opacity="0.1" style="fill:#D4B785;fill:color(display-p3 0.8314 0.7176 0.5216);fill-opacity:0.1;"/>
<rect x="0.5" y="0.5" width="35" height="35" rx="7.5" stroke="#DDDDDD" stroke-opacity="0.5" style="stroke:#DDDDDD;stroke:color(display-p3 0.8676 0.8676 0.8676);stroke-opacity:0.5;"/>
<path fill-rule="evenodd" clip-rule="evenodd" d="M12.9979 23.518C13.2409 20.984 15.3784 19 17.9754 19C18.1419 19 18.3064 19.008 18.4689 19.024C18.535 19.0319 18.602 19.0266 18.666 19.0083C18.73 18.9899 18.7897 18.959 18.8416 18.9173C18.8935 18.8756 18.9366 18.824 18.9682 18.7654C18.9999 18.7069 19.0196 18.6426 19.0261 18.5763C19.0326 18.5101 19.0257 18.4432 19.006 18.3796C18.9863 18.316 18.9541 18.257 18.9113 18.206C18.8685 18.155 18.816 18.1131 18.7567 18.0827C18.6975 18.0523 18.6328 18.0341 18.5664 18.029C18.37 18.0098 18.1728 18.0001 17.9754 18C14.8584 18 12.2939 20.3815 12.0029 23.4225C11.9946 23.4889 11.9997 23.5562 12.0178 23.6206C12.036 23.685 12.0669 23.7451 12.1087 23.7973C12.1505 23.8495 12.2024 23.8928 12.2612 23.9246C12.32 23.9564 12.3847 23.9761 12.4513 23.9825C12.5178 23.9889 12.585 23.9819 12.6488 23.9618C12.7127 23.9418 12.7718 23.9091 12.8228 23.8658C12.8738 23.8225 12.9155 23.7694 12.9456 23.7097C12.9757 23.6499 12.9935 23.5847 12.9979 23.518ZM17.9504 12C16.2944 12 14.9504 13.3445 14.9504 15C14.9504 16.6555 16.2944 18 17.9504 18C19.6059 18 20.9504 16.6555 20.9504 15C20.9504 13.3445 19.6059 12 17.9504 12ZM17.9504 13C19.0544 13 19.9504 13.896 19.9504 15C19.9504 16.104 19.0544 17 17.9504 17C16.8464 17 15.9504 16.104 15.9504 15C15.9504 13.896 16.8464 13 17.9504 13ZM20.7449 19.4945C19.4804 19.4945 18.3709 20.5225 17.8709 21.099L17.8679 21.1025C17.7151 21.2816 17.6312 21.5094 17.6314 21.7449C17.6315 21.9804 17.7158 22.2081 17.8689 22.387L17.8709 22.389C18.3704 22.966 19.4804 23.9945 20.7449 23.9945C22.0094 23.9945 23.1189 22.9665 23.6189 22.39L23.6219 22.3865C23.7748 22.2074 23.8587 21.9796 23.8585 21.7441C23.8583 21.5086 23.7741 21.2809 23.6209 21.102L23.6189 21.1C23.1194 20.523 22.0094 19.4945 20.7449 19.4945ZM22.8549 21.745C22.4769 22.179 21.6844 22.9945 20.7449 22.9945C19.8054 22.9945 19.0124 22.1785 18.6349 21.744C19.0129 21.31 19.8054 20.4945 20.7449 20.4945C21.6844 20.4945 22.4774 21.3105 22.8549 21.745Z" fill="#9A7B4F" style="fill:#9A7B4F;fill:color(display-p3 0.6039 0.4824 0.3098);fill-opacity:1;"/>
<path d="M20.7451 22.3696C21.0903 22.3696 21.3701 22.0898 21.3701 21.7446C21.3701 21.3995 21.0903 21.1196 20.7451 21.1196C20.3999 21.1196 20.1201 21.3995 20.1201 21.7446C20.1201 22.0898 20.3999 22.3696 20.7451 22.3696Z" fill="#9A7B4F" style="fill:#9A7B4F;fill:color(display-p3 0.6039 0.4824 0.3098);fill-opacity:1;"/>
</svg>
