<svg width="24" height="24" viewBox="0 0 24 24" fill="none" xmlns="http://www.w3.org/2000/svg">
<rect width="24" height="24" rx="3" fill="#FFEBC9"/>
<path d="M5.45601 8.72632L5.58694 9.08723C5.65879 9.28509 5.77373 9.46478 5.92356 9.6135C6.0734 9.76221 6.25444 9.87629 6.45378 9.9476L6.81741 10.0776C6.82459 10.0802 6.83079 10.0849 6.83517 10.0911C6.83955 10.0974 6.8419 10.1048 6.8419 10.1124C6.8419 10.12 6.83955 10.1274 6.83517 10.1336C6.83079 10.1398 6.82459 10.1445 6.81741 10.1472L6.45378 10.2771C6.25444 10.3484 6.0734 10.4625 5.92356 10.6112C5.77373 10.7599 5.65879 10.9396 5.58694 11.1375L5.45601 11.4984C5.45337 11.5055 5.4486 11.5117 5.44233 11.516C5.43606 11.5204 5.4286 11.5227 5.42095 11.5227C5.4133 11.5227 5.40584 11.5204 5.39957 11.516C5.3933 11.5117 5.38852 11.5055 5.38589 11.4984L5.25495 11.1375C5.1831 10.9396 5.06817 10.7599 4.91833 10.6112C4.7685 10.4625 4.58746 10.3484 4.38811 10.2771L4.02449 10.1472C4.0173 10.1445 4.01111 10.1398 4.00673 10.1336C4.00235 10.1274 4 10.12 4 10.1124C4 10.1048 4.00235 10.0974 4.00673 10.0911C4.01111 10.0849 4.0173 10.0802 4.02449 10.0776L4.38811 9.9476C4.58746 9.87629 4.7685 9.76221 4.91833 9.6135C5.06817 9.46478 5.1831 9.28509 5.25495 9.08723L5.38589 8.72632C5.38845 8.71912 5.3932 8.71288 5.39947 8.70847C5.40575 8.70406 5.41326 8.7017 5.42095 8.7017C5.42864 8.7017 5.43614 8.70406 5.44242 8.70847C5.4487 8.71288 5.45345 8.71912 5.45601 8.72632Z" fill="#B08D59"/>
<path d="M9.34608 7.3035L9.41155 7.48395C9.44748 7.58288 9.50494 7.67273 9.57986 7.74709C9.65478 7.82145 9.7453 7.87849 9.84497 7.91414L10.0268 7.97912C10.0304 7.98043 10.0335 7.9828 10.0357 7.98591C10.0379 7.98902 10.039 7.99273 10.039 7.99652C10.039 8.00032 10.0379 8.00402 10.0357 8.00713C10.0335 8.01024 10.0304 8.01261 10.0268 8.01392L9.84497 8.0789C9.7453 8.11456 9.65478 8.1716 9.57986 8.24595C9.50494 8.32031 9.44748 8.41016 9.41155 8.50909L9.34608 8.68954C9.34477 8.69311 9.34238 8.69618 9.33924 8.69836C9.33611 8.70053 9.33238 8.7017 9.32855 8.7017C9.32473 8.7017 9.321 8.70053 9.31786 8.69836C9.31473 8.69618 9.31234 8.69311 9.31102 8.68954L9.24555 8.50909C9.20963 8.41016 9.15216 8.32031 9.07725 8.24595C9.00233 8.1716 8.91181 8.11456 8.81214 8.0789L8.63032 8.01392C8.62673 8.01261 8.62363 8.01024 8.62144 8.00713C8.61925 8.00402 8.61808 8.00032 8.61808 7.99652C8.61808 7.99273 8.61925 7.98902 8.62144 7.98591C8.62363 7.9828 8.62673 7.98043 8.63032 7.97912L8.81214 7.91414C8.91181 7.87849 9.00233 7.82145 9.07725 7.74709C9.15216 7.67273 9.20963 7.58288 9.24555 7.48395L9.31102 7.3035C9.3123 7.2999 9.31468 7.29678 9.31782 7.29458C9.32096 7.29237 9.32471 7.29119 9.32855 7.29119C9.3324 7.29119 9.33615 7.29237 9.33929 7.29458C9.34243 7.29678 9.3448 7.2999 9.34608 7.3035Z" fill="#B08D59"/>
<path d="M6.14895 4.01231L6.21442 4.19277C6.25034 4.2917 6.30781 4.38154 6.38273 4.4559C6.45765 4.53026 6.54817 4.5873 6.64784 4.62295L6.82965 4.68793C6.83324 4.68924 6.83634 4.69161 6.83853 4.69472C6.84072 4.69783 6.8419 4.70154 6.8419 4.70533C6.8419 4.70913 6.84072 4.71283 6.83853 4.71594C6.83634 4.71906 6.83324 4.72143 6.82965 4.72273L6.64784 4.78771C6.54817 4.82337 6.45765 4.88041 6.38273 4.95477C6.30781 5.02912 6.25034 5.11897 6.21442 5.2179L6.14895 5.39836C6.14763 5.40192 6.14525 5.405 6.14211 5.40717C6.13898 5.40934 6.13525 5.41051 6.13142 5.41051C6.1276 5.41051 6.12387 5.40934 6.12073 5.40717C6.1176 5.405 6.11521 5.40192 6.11389 5.39836L6.04842 5.2179C6.0125 5.11897 5.95503 5.02912 5.88011 4.95477C5.8052 4.88041 5.71468 4.82337 5.615 4.78771L5.43319 4.72273C5.4296 4.72143 5.4265 4.71906 5.42431 4.71594C5.42212 4.71283 5.42095 4.70913 5.42095 4.70533C5.42095 4.70154 5.42212 4.69783 5.42431 4.69472C5.4265 4.69161 5.4296 4.68924 5.43319 4.68793L5.615 4.62295C5.71468 4.5873 5.8052 4.53026 5.88011 4.4559C5.95503 4.38154 6.0125 4.2917 6.04842 4.19277L6.11389 4.01231C6.11517 4.00871 6.11755 4.00559 6.12069 4.00339C6.12382 4.00118 6.12758 4 6.13142 4C6.13527 4 6.13902 4.00118 6.14216 4.00339C6.1453 4.00559 6.14767 4.00871 6.14895 4.01231Z" fill="#B08D59"/>
<path d="M14.5387 8.7017C16.9968 8.7017 19.1047 10.1887 20 12.3059C19.0607 10.3815 17.0743 9.05432 14.7755 9.05432C11.5711 9.05432 8.97332 11.633 8.97332 14.8139C8.97332 17.0958 10.3103 19.0676 12.249 20C10.1161 19.1113 8.61808 17.0188 8.61808 14.5788C8.61808 11.333 11.2688 8.7017 14.5387 8.7017Z" fill="#B08D59"/>
</svg>
